<svg xmlns="http://www.w3.org/2000/svg" viewBox="0 0 900 520"><defs><linearGradient id="b" x2="1" y2="1"><stop stop-color="#ffd9f2"/><stop offset=".5" stop-color="#d9c8ff"/><stop offset="1" stop-color="#cdeeff"/></linearGradient><filter id="s"><feDropShadow dx="0" dy="8" stdDeviation="8" flood-opacity=".2"/></filter></defs><rect width="900" height="520" rx="38" fill="url(#b)"/><circle cx="100" cy="85" r="55" fill="#fff" opacity=".55"/><circle cx="790" cy="110" r="80" fill="#fff" opacity=".35"/><path d="M0 400 Q180 310 340 390 T650 370 T900 390V520H0Z" fill="#b8e5c2"/><g filter="url(#s)"><circle cx="375" cy="210" r="105" fill="#ffd9c7"/><path d="M270 190Q280 65 380 78Q495 65 493 205Q450 132 378 133Q310 132 270 190" fill="#6b3c2d"/><path d="M290 130Q250 90 275 65Q315 90 326 118" fill="#ec7fbb"/><ellipse cx="340" cy="215" rx="20" ry="28" fill="#7a4aa8"/><ellipse cx="414" cy="215" rx="20" ry="28" fill="#7a4aa8"/><circle cx="346" cy="207" r="7" fill="white"/><circle cx="420" cy="207" r="7" fill="white"/><path d="M355 258Q378 278 402 255" fill="none" stroke="#c45f72" stroke-width="7" stroke-linecap="round"/><path d="M286 306Q380 270 470 308L500 470H250Z" fill="#8b66ca"/><path d="M280 330Q200 360 190 430" fill="none" stroke="#ffd9c7" stroke-width="38" stroke-linecap="round"/><circle cx="177" cy="438" r="42" fill="#ffd9c7"/><circle cx="170" cy="438" r="48" fill="none" stroke="#c79544" stroke-width="12"/><line x1="137" y1="474" x2="105" y2="505" stroke="#7b4b25" stroke-width="15" stroke-linecap="round"/><g transform="translate(520 300)"><ellipse cx="95" cy="105" rx="82" ry="90" fill="#fff"/><path d="M35 48L45 0L78 39M150 48L142 0L110 39" fill="#fff" stroke="#e8cde0" stroke-width="4"/><ellipse cx="70" cy="85" rx="13" ry="18" fill="#8656b3"/><ellipse cx="120" cy="85" rx="13" ry="18" fill="#8656b3"/><path d="M88 112Q96 120 104 112" fill="none" stroke="#d06b91" stroke-width="5"/><path d="M54 43Q95 18 136 43" fill="none" stroke="#e880bd" stroke-width="13"/><circle cx="95" cy="38" r="15" fill="#ef93c9"/></g></g><g font-family="Arial,sans-serif" text-anchor="middle"><text x="450" y="55" font-size="30" font-weight="900" fill="#65428f">DETECTIVE SOPHIA</text><text x="450" y="505" font-size="24" font-weight="800" fill="#65428f">Mystery Academy • Read • Think • Remember • Solve</text></g><g fill="#fff6a7" font-size="35"><text x="95" y="165">✦</text><text x="760" y="220">✦</text><text x="690" y="80">★</text></g></svg>